<svg width="234" height="199" viewBox="0 0 234 199" fill="none" xmlns="http://www.w3.org/2000/svg">
<g clip-path="url(#clip0)">
<path d="M135.944 194.854H81.75L83.5871 168.672H134.107L135.944 194.854Z" fill="#E6E6E6"/>
<path d="M139.618 191.833H78.9944V197.875H139.618V191.833Z" fill="#E6E6E6"/>
<path d="M212.642 0H5.51124C4.04957 0 2.64776 0.636567 1.61421 1.76966C0.580648 2.90276 0 4.43956 0 6.042V144.504H218.153V6.042C218.153 4.43956 217.572 2.90276 216.539 1.76966C215.505 0.636567 214.104 0 212.642 0Z" fill="#3F3D56"/>
<path d="M0 144.504V167.162C0 167.955 0.142551 168.741 0.419516 169.474C0.696482 170.207 1.10244 170.873 1.61421 171.434C2.12597 171.995 2.73353 172.44 3.40218 172.744C4.07083 173.048 4.78749 173.204 5.51124 173.204H212.642C213.366 173.204 214.082 173.048 214.751 172.744C215.42 172.44 216.027 171.995 216.539 171.434C217.051 170.873 217.457 170.207 217.734 169.474C218.011 168.741 218.153 167.955 218.153 167.162V144.504H0Z" fill="#E6E6E6"/>
<path d="M207.59 12.5875H11.0225V133.427H207.59V12.5875Z" fill="#E6E6E6"/>
<path d="M109.306 164.644C112.35 164.644 114.817 161.939 114.817 158.602C114.817 155.265 112.35 152.56 109.306 152.56C106.262 152.56 103.795 155.265 103.795 158.602C103.795 161.939 106.262 164.644 109.306 164.644Z" fill="#3F3D56"/>
<path d="M17.1515 17.6915C17.7291 17.6915 18.1974 17.1781 18.1974 16.5449C18.1974 15.9116 17.7291 15.3983 17.1515 15.3983C16.5739 15.3983 16.1056 15.9116 16.1056 16.5449C16.1056 17.1781 16.5739 17.6915 17.1515 17.6915Z" fill="white"/>
<path d="M21.1215 17.6915C21.6991 17.6915 22.1673 17.1781 22.1673 16.5449C22.1673 15.9116 21.6991 15.3983 21.1215 15.3983C20.5438 15.3983 20.0756 15.9116 20.0756 16.5449C20.0756 17.1781 20.5438 17.6915 21.1215 17.6915Z" fill="white"/>
<path d="M25.0914 17.6915C25.669 17.6915 26.1373 17.1781 26.1373 16.5449C26.1373 15.9116 25.669 15.3983 25.0914 15.3983C24.5138 15.3983 24.0455 15.9116 24.0455 16.5449C24.0455 17.1781 24.5138 17.6915 25.0914 17.6915Z" fill="white"/>
<path d="M225.662 81.7224C225.662 81.7224 227.347 105.731 224.989 106.47C222.63 107.209 214.207 112.749 200.731 111.272C200.731 111.272 187.591 119.028 189.612 111.641C191.634 104.254 200.731 106.1 200.731 106.1C200.731 106.1 216.903 102.407 217.576 99.8213C218.25 97.2357 215.555 86.5242 216.566 86.1548C217.576 85.7855 225.662 81.7224 225.662 81.7224Z" fill="#FFB8B8"/>
<path opacity="0.2" d="M224.529 82.0331C224.529 82.0331 226.214 106.042 223.855 106.78C221.497 107.519 213.074 113.06 199.597 111.582C199.597 111.582 186.457 119.339 188.479 111.952C190.5 104.564 199.597 106.411 199.597 106.411C199.597 106.411 215.769 102.717 216.443 100.132C217.117 97.5464 214.421 86.8349 215.432 86.4655C216.443 86.0961 224.529 82.0331 224.529 82.0331Z" fill="#231F20"/>
<path d="M205.611 120.655C205.611 120.655 206.795 161.063 208.817 166.234C210.5 170.541 211.483 184.587 211.764 189.159C211.821 190.076 211.849 190.612 211.849 190.612C211.849 190.612 217.24 190.612 217.576 189.135C217.913 187.657 218.924 171.405 217.576 166.234C216.229 161.063 219.497 122.83 219.497 122.83L205.611 120.655Z" fill="#2F2E41"/>
<path d="M213.197 188.765C213.197 188.765 209.827 189.873 209.154 191.351C208.48 192.828 197.361 195.414 200.731 197.261C204.1 199.107 214.207 195.783 214.207 195.783C214.207 195.783 219.598 195.414 219.261 193.198C218.924 190.981 217.697 188.251 217.697 188.251L213.197 188.765Z" fill="#2F2E41"/>
<path d="M222.63 189.946C222.63 189.946 219.261 191.054 218.587 192.532C217.913 194.009 206.795 196.595 210.164 198.441C213.533 200.288 223.641 196.964 223.641 196.964C223.641 196.964 229.032 196.595 228.695 194.378C228.358 192.162 227.131 189.432 227.131 189.432L222.63 189.946Z" fill="#2F2E41"/>
<path d="M208.48 122.722L213.197 131.587L221.069 162.408C221.069 162.408 220.272 190.685 221.283 190.685C222.293 190.685 227.684 192.532 228.021 190.685C228.305 189.125 232.079 174.181 230.198 164.234C228.975 157.947 228.188 151.568 227.844 145.151L227.01 127.893C227.01 127.893 230.379 121.244 226.673 120.136C222.967 119.028 208.48 122.722 208.48 122.722Z" fill="#2F2E41"/>
<path d="M212.86 65.8398C217.325 65.8398 220.946 61.8709 220.946 56.9751C220.946 52.0792 217.325 48.1104 212.86 48.1104C208.394 48.1104 204.774 52.0792 204.774 56.9751C204.774 61.8709 208.394 65.8398 212.86 65.8398Z" fill="#FFB8B8"/>
<path d="M211.849 62.8849C211.849 62.8849 213.197 74.7045 212.86 75.4433C212.523 76.182 220.946 67.3173 220.946 67.3173C220.946 67.3173 217.913 62.1462 218.587 59.5606L211.849 62.8849Z" fill="#FFB8B8"/>
<path d="M230.716 74.7045C230.716 74.7045 221.283 67.3173 220.946 65.8398L213.87 72.4883L212.668 70.9195C212.668 70.9195 207.132 76.9207 207.132 79.5063C207.132 82.0918 206.795 89.8484 207.806 92.0646C208.817 94.2808 204.774 122.352 204.774 122.352C204.774 122.352 208.143 125.677 208.48 126.046C208.817 126.415 222.293 123.83 222.293 123.83C222.293 123.83 229.032 123.091 229.032 121.983C229.032 120.875 227.01 104.254 227.684 99.8213C228.358 95.3889 230.716 74.7045 230.716 74.7045Z" fill="#575A89"/>
<path d="M209.406 52.5467C210.511 52.1155 211.73 51.894 212.857 52.2515C214.452 52.7575 215.557 54.2903 216.749 55.5582C217.94 56.826 219.611 57.9495 221.18 57.3533C221.085 56.6078 221.264 55.8516 221.676 55.2498C221.881 55.0255 222.032 54.7494 222.117 54.4458C222.184 53.971 221.82 53.5615 221.71 53.0962C221.519 52.2808 222.044 51.1646 221.399 50.7076C221.228 50.587 221.013 50.5595 220.847 50.4322C220.194 49.9325 220.919 48.6898 220.487 47.9567C220.358 47.7674 220.191 47.614 219.998 47.5087C216.871 45.5088 213.048 45.5033 209.428 45.5537C208.925 45.5607 208.223 45.835 208.365 46.365C207.681 45.8267 206.786 46.5826 206.234 47.2802L205.106 48.7082C204.575 49.3291 204.113 50.0154 203.727 50.7533C203.382 51.476 203.306 52.5871 203.992 52.9022C203.482 52.668 202.863 55.9801 205.214 55.4352C206.581 55.1185 207.92 53.1265 209.406 52.5467Z" fill="#2F2E41"/>
<path d="M201.925 20.441H16.1056V121.927H201.925V20.441Z" fill="white"/>
<path d="M67.9373 35.3552H27.3241V74.2429H67.9373V35.3552Z" fill="#E6E6E6"/>
<path d="M129.385 35.4721H88.8937V74.2429H129.385V35.4721Z" fill="#E6E6E6"/>
<path d="M190.706 35.0918H149.818V74.2429H190.706V35.0918Z" fill="#E6E6E6"/>
<path d="M67.0463 91.2172H27.3241V95.24H67.0463V91.2172Z" fill="#E6E6E6"/>
<path d="M47.226 98.2996H27.3241V102.322H47.226V98.2996Z" fill="#FC63FF"/>
<path d="M129.278 91.2172H89.5555V95.24H129.278V91.2172Z" fill="#E6E6E6"/>
<path d="M109.457 98.2996H89.5555V102.322H109.457V98.2996Z" fill="#CC2589"/>
<path d="M189.953 91.2172H150.231V95.24H189.953V91.2172Z" fill="#E6E6E6"/>
<path d="M170.133 98.2996H150.231V102.322H170.133V98.2996Z" fill="#C0239E"/>
<path d="M101.897 84.7725C102.933 84.7725 103.773 83.8521 103.773 82.7167C103.773 81.5813 102.933 80.6609 101.897 80.6609C100.862 80.6609 100.022 81.5813 100.022 82.7167C100.022 83.8521 100.862 84.7725 101.897 84.7725Z" fill="#C0239E"/>
<path d="M109.015 84.7725C110.051 84.7725 110.89 83.8521 110.89 82.7167C110.89 81.5813 110.051 80.6609 109.015 80.6609C107.979 80.6609 107.14 81.5813 107.14 82.7167C107.14 83.8521 107.979 84.7725 109.015 84.7725Z" fill="#E6E6E6"/>
<path d="M116.133 84.7725C117.169 84.7725 118.008 83.8521 118.008 82.7167C118.008 81.5813 117.169 80.6609 116.133 80.6609C115.097 80.6609 114.258 81.5813 114.258 82.7167C114.258 83.8521 115.097 84.7725 116.133 84.7725Z" fill="#E6E6E6"/>
<path d="M40.5128 84.7725C41.5485 84.7725 42.388 83.8521 42.388 82.7167C42.388 81.5813 41.5485 80.6609 40.5128 80.6609C39.4772 80.6609 38.6376 81.5813 38.6376 82.7167C38.6376 83.8521 39.4772 84.7725 40.5128 84.7725Z" fill="#C0239E"/>
<path d="M47.6307 84.7725C48.6663 84.7725 49.5059 83.8521 49.5059 82.7167C49.5059 81.5813 48.6663 80.6609 47.6307 80.6609C46.595 80.6609 45.7554 81.5813 45.7554 82.7167C45.7554 83.8521 46.595 84.7725 47.6307 84.7725Z" fill="#C0239E"/>
<path d="M54.7485 84.7725C55.7841 84.7725 56.6237 83.8521 56.6237 82.7167C56.6237 81.5813 55.7841 80.6609 54.7485 80.6609C53.7128 80.6609 52.8733 81.5813 52.8733 82.7167C52.8733 83.8521 53.7128 84.7725 54.7485 84.7725Z" fill="#E6E6E6"/>
<path d="M164.796 84.7725C165.831 84.7725 166.671 83.8521 166.671 82.7167C166.671 81.5813 165.831 80.6609 164.796 80.6609C163.76 80.6609 162.92 81.5813 162.92 82.7167C162.92 83.8521 163.76 84.7725 164.796 84.7725Z" fill="#C0239E"/>
<path d="M171.913 84.7725C172.949 84.7725 173.789 83.8521 173.789 82.7167C173.789 81.5813 172.949 80.6609 171.913 80.6609C170.878 80.6609 170.038 81.5813 170.038 82.7167C170.038 83.8521 170.878 84.7725 171.913 84.7725Z" fill="#C0239E"/>
<path d="M179.031 84.7725C180.067 84.7725 180.906 83.8521 180.906 82.7167C180.906 81.5813 180.067 80.6609 179.031 80.6609C177.996 80.6609 177.156 81.5813 177.156 82.7167C177.156 83.8521 177.996 84.7725 179.031 84.7725Z" fill="#C0239E"/>
<path d="M170.262 43.2704C168.206 43.2704 166.196 43.9388 164.486 45.1911C162.777 46.4434 161.444 48.2234 160.658 50.3059C159.871 52.3885 159.665 54.68 160.066 56.8908C160.467 59.1017 161.457 61.1324 162.911 62.7263C164.365 64.3202 166.217 65.4057 168.234 65.8454C170.251 66.2852 172.341 66.0595 174.24 65.1969C176.14 64.3343 177.764 62.8735 178.906 60.9992C180.048 59.125 180.658 56.9215 180.658 54.6674C180.65 51.6474 179.552 48.7537 177.604 46.6182C175.656 44.4828 173.017 43.2792 170.262 43.2704ZM170.262 46.6895C170.879 46.6895 171.482 46.89 171.995 47.2657C172.508 47.6414 172.907 48.1754 173.143 48.8001C173.38 49.4249 173.441 50.1124 173.321 50.7756C173.201 51.4389 172.904 52.0481 172.467 52.5263C172.031 53.0044 171.476 53.3301 170.871 53.462C170.266 53.5939 169.638 53.5262 169.069 53.2674C168.499 53.0086 168.012 52.5704 167.669 52.0081C167.326 51.4459 167.143 50.7848 167.143 50.1086C167.146 49.2027 167.476 48.3348 168.06 47.6942C168.644 47.0537 169.436 46.6925 170.262 46.6895ZM170.262 63.1494C169.03 63.1432 167.818 62.8077 166.731 62.1717C165.644 61.5358 164.715 60.6188 164.025 59.5002C164.075 57.2208 168.183 55.966 170.262 55.966C172.341 55.966 176.45 57.2208 176.5 59.5002C175.808 60.6179 174.879 61.5343 173.792 62.1701C172.706 62.806 171.494 63.1421 170.262 63.1494Z" fill="#C0239E"/>
<path d="M109.139 43.4605C107.083 43.4605 105.073 44.1289 103.364 45.3813C101.654 46.6336 100.321 48.4135 99.5347 50.4961C98.7478 52.5786 98.5419 54.8702 98.9431 57.081C99.3442 59.2918 100.334 61.3226 101.788 62.9165C103.242 64.5104 105.094 65.5958 107.111 66.0356C109.128 66.4753 111.218 66.2496 113.118 65.387C115.017 64.5244 116.641 63.0636 117.783 61.1894C118.925 59.3152 119.535 57.1117 119.535 54.8575C119.527 51.8376 118.429 48.9438 116.481 46.8084C114.533 44.673 111.894 43.4694 109.139 43.4605ZM109.139 46.8796C109.756 46.8796 110.359 47.0801 110.872 47.4558C111.385 47.8315 111.785 48.3655 112.021 48.9903C112.257 49.6151 112.318 50.3025 112.198 50.9658C112.078 51.629 111.781 52.2382 111.345 52.7164C110.908 53.1946 110.353 53.5202 109.748 53.6521C109.143 53.7841 108.516 53.7164 107.946 53.4576C107.376 53.1988 106.889 52.7606 106.546 52.1983C106.203 51.636 106.02 50.975 106.02 50.2987C106.023 49.3929 106.353 48.525 106.937 47.8844C107.521 47.2438 108.313 46.8826 109.139 46.8796ZM109.139 63.3396C107.907 63.3334 106.695 62.9978 105.608 62.3619C104.521 61.726 103.592 60.8089 102.902 59.6903C102.952 57.4109 107.06 56.1561 109.139 56.1561C111.218 56.1561 115.327 57.4109 115.377 59.6903C114.685 60.8081 113.756 61.7245 112.669 62.3603C111.583 62.9961 110.371 63.3322 109.139 63.3396Z" fill="#C0239E"/>
<path d="M47.6307 43.402C45.5746 43.402 43.5646 44.0705 41.855 45.3228C40.1454 46.5751 38.813 48.3551 38.0261 50.4376C37.2393 52.5201 37.0334 54.8117 37.4346 57.0225C37.8357 59.2333 38.8258 61.2641 40.2797 62.858C41.7336 64.4519 43.5859 65.5374 45.6025 65.9771C47.6191 66.4169 49.7094 66.1912 51.609 65.3286C53.5086 64.4659 55.1322 63.0052 56.2745 61.1309C57.4168 59.2567 58.0265 57.0532 58.0265 54.7991C58.0185 51.7791 56.9206 48.8854 54.9727 46.7499C53.0249 44.6145 50.3853 43.4109 47.6307 43.402ZM47.6307 46.8211C48.2475 46.8211 48.8505 47.0217 49.3634 47.3974C49.8762 47.7731 50.276 48.3071 50.512 48.9318C50.7481 49.5566 50.8098 50.2441 50.6895 50.9073C50.5692 51.5705 50.2721 52.1798 49.836 52.6579C49.3998 53.1361 48.8441 53.4617 48.2391 53.5937C47.6341 53.7256 47.007 53.6579 46.4372 53.3991C45.8673 53.1403 45.3802 52.7021 45.0375 52.1398C44.6948 51.5775 44.5119 50.9165 44.5119 50.2403C44.5147 49.3344 44.8441 48.4665 45.4284 47.8259C46.0127 47.1854 46.8044 46.8242 47.6307 46.8212V46.8211ZM47.6307 63.2811C46.3986 63.2749 45.1866 62.9393 44.0996 62.3034C43.0127 61.6675 42.0837 60.7505 41.3932 59.6319C41.4431 57.3524 45.5515 56.0977 47.6307 56.0977C49.7098 56.0977 53.8182 57.3524 53.8682 59.6319C53.1769 60.7496 52.2477 61.666 51.1609 62.3018C50.0741 62.9376 48.8625 63.2737 47.6307 63.2811Z" fill="#C0239E"/>
<path d="M232.738 85.0467C232.738 85.0467 234.422 109.055 232.064 109.794C229.705 110.533 221.283 116.073 207.806 114.596C207.806 114.596 194.666 122.352 196.688 114.965C198.709 107.578 207.806 109.425 207.806 109.425C207.806 109.425 223.978 105.731 224.652 103.146C225.326 100.56 222.63 89.8485 223.641 89.4791C224.652 89.1097 232.738 85.0467 232.738 85.0467Z" fill="#FFB8B8"/>
<path d="M225.326 75.4433L230.716 74.7045C230.716 74.7045 236.107 86.1548 233.075 88.0016C230.042 89.8484 222.293 91.3259 222.293 90.5872C222.293 89.8484 225.326 75.4433 225.326 75.4433Z" fill="#575A89"/>
</g>
<defs>
<clipPath id="clip0">
<rect width="234" height="199" fill="white"/>
</clipPath>
</defs>
</svg>
