<svg width="150" height="106" viewBox="0 0 150 106" fill="none" xmlns="http://www.w3.org/2000/svg">
<g clip-path="url(#clip0)">
<path d="M150 98.4934H0V98.8001H150V98.4934Z" fill="#3F3D56"/>
<path d="M94.1129 45.9679C94.1129 45.9679 87.3848 50.6161 90.7489 51.6725C94.1129 52.7289 96.2755 47.8694 96.2755 47.8694L94.1129 45.9679Z" fill="#FFB8B8"/>
<path d="M94.3532 44.2776L92.9115 46.3905C92.9115 46.3905 95.3144 46.3905 95.7949 49.5597L97.7173 47.4469L94.3532 44.2776Z" fill="#CFCCE0"/>
<path d="M126.312 92.4497L126.552 98.7881L123.669 100.267L122.467 99.6332L122.707 92.4497H126.312Z" fill="#FFB8B8"/>
<path d="M109.251 90.7594L109.732 97.5204L103.004 100.056L103.484 96.464C103.484 96.464 105.407 93.7174 104.926 90.7594H109.251Z" fill="#FFB8B8"/>
<path d="M119.584 39.8408C119.584 39.8408 123.428 48.7146 124.149 54.2078C124.87 59.7011 126.071 74.2795 126.071 74.2795L128.474 93.0835L121.746 93.9286L118.863 74.9134L112.375 56.1094L110.933 74.9134L109.732 92.0271L103.484 92.2384L103.004 74.4908L100.36 51.8838L101.802 41.1084L119.584 39.8408Z" fill="#2F2E41"/>
<path d="M123.188 99.2107C123.188 99.2107 123.582 95.6622 126.509 97.6477L127.033 97.3091L129.435 101.957C129.435 101.957 132.319 105.549 127.273 105.972C122.227 106.394 122.707 101.957 122.707 101.957L122.227 100.056L122.467 98.8106L123.188 99.2107Z" fill="#2F2E41"/>
<path d="M109.251 94.985C109.843 95.2824 110.333 95.7135 110.671 96.2336C111.009 96.7538 111.182 97.344 111.173 97.943C111.173 100.056 110.933 100.267 110.933 100.267L107.329 101.112C107.329 101.112 104.926 100.901 103.484 102.169C102.042 103.436 94.8338 104.281 94.8338 102.591C94.8338 100.901 100.841 98.1543 100.841 98.1543C100.841 98.1543 102.625 95.5052 103.896 95.7733C105.166 96.0415 105.647 96.464 105.647 96.6753C105.647 96.8866 104.926 98.3655 104.926 98.3655C104.926 98.3655 109.011 97.5204 109.251 94.985Z" fill="#2F2E41"/>
<path d="M108.771 13.8532C112.088 13.8532 114.778 11.4884 114.778 8.57122C114.778 5.65404 112.088 3.2892 108.771 3.2892C105.453 3.2892 102.763 5.65404 102.763 8.57122C102.763 11.4884 105.453 13.8532 108.771 13.8532Z" fill="#FFB8B8"/>
<path d="M113.216 9.94455L115.859 15.2266L108.65 24.3116C108.65 24.3116 108.17 14.3814 106.728 12.6912C105.286 11.001 113.216 9.94455 113.216 9.94455Z" fill="#FFB8B8"/>
<path d="M109.852 20.9312L111.053 18.1845L112.014 18.3958L113.216 17.5506L114.898 12.9025L117.301 14.3814L120.425 42.0592L100.961 42.4818L103.604 23.2552L106.007 17.762L107.742 15.7458L108.891 18.8183L109.852 20.9312Z" fill="#CFCCE0"/>
<path d="M115.379 32.7629L116.114 13.6508C116.114 13.6508 117.541 13.7476 118.022 14.3814C118.502 15.0153 126.432 16.283 126.432 16.283L124.99 35.9321C124.99 35.9321 130.997 51.5669 128.835 52.412C126.672 53.2571 122.828 53.0458 122.828 53.0458L115.379 32.7629Z" fill="#575A89"/>
<path d="M103.724 30.3331L106.274 17.4524L100.601 20.8255L102.042 30.1219L100.841 36.4603C100.841 36.4603 96.2755 53.9966 97.7172 54.6304C99.159 55.2643 100.841 54.6304 100.841 54.6304L103.724 36.8829V30.3331Z" fill="#575A89"/>
<path d="M102.283 20.4029L100.601 20.8255L99.8799 29.2767L98.6784 36.6716L92.9115 45.7566C92.9115 45.7566 95.7949 44.0664 96.9964 48.9258L103.347 39.2033L102.283 20.4029Z" fill="#575A89"/>
<path d="M121.025 44.2776C121.025 44.2776 114.297 48.9258 117.661 49.9822C121.025 51.0386 123.188 46.1792 123.188 46.1792L121.025 44.2776Z" fill="#FFB8B8"/>
<path d="M125.11 46.6018L122.948 48.9258L120.064 44.4889L121.266 42.5874L125.11 46.6018Z" fill="#CFCCE0"/>
<path d="M124.63 17.0225L126.552 16.1773C126.552 16.1773 127.994 17.8676 128.234 19.3465C128.474 20.8255 129.676 22.727 129.676 23.7834C129.676 24.8398 133.04 34.77 133.04 34.77L125.351 48.5033C125.351 48.5033 123.668 43.4326 120.064 43.01L126.071 35.6152L122.707 30.3331L124.63 17.0225Z" fill="#575A89"/>
<path d="M113.8 3.53859L114.932 3.13983C114.932 3.13983 112.564 0.846962 109.268 1.04635L110.195 0.149132C110.195 0.149132 107.93 -0.64838 105.87 1.4451C104.787 2.54559 103.534 3.83917 102.754 5.29637H101.54L102.047 6.27665L100.275 7.25693L102.094 7.08085C101.985 7.61766 101.969 8.16569 102.044 8.70682C102.122 9.24812 102.436 9.74159 102.92 10.0831C102.92 10.0831 104.325 7.52617 104.325 7.12741V8.12431C104.325 8.12431 105.458 7.2271 105.458 6.62897L106.076 7.3268L106.385 6.2302L110.195 7.3268L109.577 6.42959L111.946 6.72866L111.019 5.63206C111.019 5.63206 113.697 6.92803 113.8 8.02462C113.902 9.1212 114.686 10.1603 114.686 10.1603C114.686 10.1603 116.786 5.03393 113.8 3.53859Z" fill="#2F2E41"/>
<path d="M113.696 8.46558C114.068 8.46558 114.369 8.13451 114.369 7.7261C114.369 7.3177 114.068 6.98662 113.696 6.98662C113.325 6.98662 113.024 7.3177 113.024 7.7261C113.024 8.13451 113.325 8.46558 113.696 8.46558Z" fill="#FFB8B8"/>
<path d="M27.8047 43.546H7.06183V38.4352H17.8893L27.8047 43.546Z" fill="#6C63FF"/>
<path d="M7.00488 42.8446V57.7763H74.3625V42.8446H7.00488ZM33.2755 55.271H11.3928V53.1665H33.2755V55.271ZM69.9746 51.3627H11.3928V49.2582H69.9746V51.3627ZM69.9746 47.4544H11.3928V45.3499H69.9746V47.4544Z" fill="#3F3D56"/>
<path d="M27.8047 19.3947H7.06183V14.2838H17.8893L27.8047 19.3947Z" fill="#6C63FF"/>
<path d="M7.00488 18.9939V33.9256H74.3625V18.9939H7.00488ZM33.2755 31.4203H11.3928V29.3158H33.2755V31.4203ZM45.9264 27.512H11.3928V25.4075H45.9264L45.9264 27.512ZM69.9746 23.6037H11.3928V21.4992H69.9746V23.6037Z" fill="#3F3D56"/>
<path d="M27.8047 67.1963H7.06183V62.0855H17.8893L27.8047 67.1963Z" fill="#6C63FF"/>
<path d="M7.00488 66.1943V81.126H74.3625V66.1943H7.00488ZM45.9264 78.6207H11.3928V76.5162H45.9264V78.6207ZM45.9264 74.7124H11.3928V72.6079H45.9264V74.7124ZM69.9746 70.8041H11.3928V68.6996H69.9746V70.8041Z" fill="#3F3D56"/>
<path d="M93.4529 30.6186H83.8792V22.2007H90.3757V22.4011H84.1072V30.4182H93.225V26.4096H93.4529V30.6186Z" fill="#3F3D56"/>
<path d="M88.6168 28.4229C88.3955 27.8485 85.6211 25.896 87.3212 25.5678L88.7154 27.2023L95.1251 21.5665L95.7697 22.1334L88.6168 28.4229Z" fill="#6C63FF"/>
<path d="M93.4529 54.4693H83.8792V46.0513H90.3757V46.2519H84.1072V54.2689H93.225V50.2603H93.4529V54.4693Z" fill="#3F3D56"/>
<path d="M88.6168 52.2736C88.3955 51.6992 85.6211 49.7467 87.3212 49.4185L88.7154 51.053L95.1251 45.4172L95.7697 45.9841L88.6168 52.2736Z" fill="#6C63FF"/>
<path d="M93.4529 78.2198H83.8792V69.802H90.3757V70.0024H84.1072V78.0194H93.225V74.0108H93.4529V78.2198Z" fill="#3F3D56"/>
<path d="M88.6168 76.0241C88.3955 75.4497 85.6211 73.4972 87.3212 73.169L88.7154 74.8036L95.1251 69.1678L95.7697 69.7346L88.6168 76.0241Z" fill="#6C63FF"/>
</g>
<defs>
<clipPath id="clip0">
<rect width="150" height="106" fill="white"/>
</clipPath>
</defs>
</svg>
